<svg width="32" height="28" viewBox="0 0 32 28" fill="none" xmlns="http://www.w3.org/2000/svg">
<path d="M23.9325 8.69795C23.635 8.53168 23.2999 8.44438 22.9591 8.44438C22.6183 8.44438 22.2831 8.53168 21.9856 8.69795L17.519 11.2887L14.4841 12.9783L10.0176 15.569C9.72009 15.7351 9.38498 15.8223 9.0442 15.8223C8.70342 15.8223 8.36831 15.7351 8.07076 15.569L4.5203 13.5415C4.23142 13.3758 3.99014 13.1385 3.81974 12.8524C3.64933 12.5663 3.55557 12.2411 3.5475 11.9082V7.90947C3.5435 7.57405 3.63222 7.24403 3.80388 6.95583C3.97553 6.66763 4.22345 6.43243 4.5203 6.27619L8.01342 4.30499C8.31096 4.13886 8.64607 4.05164 8.98686 4.05164C9.32764 4.05164 9.66275 4.13886 9.9603 4.30499L13.4534 6.27619C13.7423 6.44184 13.9836 6.67918 14.154 6.96527C14.3244 7.25137 14.4181 7.57657 14.4262 7.90947V10.5002L17.4611 8.75427V6.16355C17.4651 5.82813 17.3764 5.49811 17.2047 5.20991C17.0331 4.92171 16.7851 4.68651 16.4883 4.53027L10.0176 0.813407C9.72009 0.647275 9.38498 0.560059 9.0442 0.560059C8.70342 0.560059 8.36831 0.647275 8.07076 0.813407L1.48465 4.53053C1.18785 4.68675 0.93995 4.9219 0.768296 5.21006C0.596642 5.49821 0.507898 5.82817 0.511848 6.16355V13.6541C0.50785 13.9895 0.596572 14.3196 0.768229 14.6078C0.939886 14.896 1.18781 15.1311 1.48465 15.2874L8.06999 19.0045C8.36754 19.1706 8.70265 19.2579 9.04343 19.2579C9.38421 19.2579 9.71933 19.1706 10.0169 19.0045L14.4833 16.4701L17.5182 14.7242L21.9849 12.1898C22.2824 12.0235 22.6175 11.9362 22.9583 11.9362C23.2991 11.9362 23.6343 12.0235 23.9318 12.1898L27.4249 14.161C27.7137 14.3267 27.955 14.564 28.1254 14.8501C28.2958 15.1362 28.3896 15.4614 28.3977 15.7943V19.793C28.4017 20.1284 28.3129 20.4584 28.1413 20.7466C27.9696 21.0348 27.7217 21.27 27.4249 21.4263L23.9318 23.4538C23.6342 23.6199 23.2991 23.7071 22.9583 23.7071C22.6175 23.7071 22.2824 23.6199 21.9849 23.4538L18.4918 21.4826C18.2029 21.3169 17.9616 21.0796 17.7912 20.7935C17.6208 20.5074 17.527 20.1822 17.519 19.8493V17.2583L14.4841 19.0043V21.595C14.4801 21.9304 14.5688 22.2604 14.7405 22.5486C14.9121 22.8368 15.16 23.072 15.4569 23.2283L22.0422 26.9454C22.3398 27.1115 22.6749 27.1987 23.0157 27.1987C23.3564 27.1987 23.6916 27.1115 23.9891 26.9454L30.5744 23.2283C30.8633 23.0626 31.1046 22.8252 31.275 22.5392C31.4454 22.2531 31.5391 21.9279 31.5472 21.595V14.1047C31.5512 13.7692 31.4625 13.4392 31.2909 13.151C31.1192 12.8628 30.8713 12.6276 30.5744 12.4714L23.9325 8.69795Z" fill="#8247E5"/>
</svg>
